HIERARCHY
ROOT joint_Root
{
	OFFSET 0.0 0.0 0.0
	CHANNELS 6 Xposition Yposition Zposition Zrotation Xrotation Yrotation 
	JOINT Hips
	{
		OFFSET -0.726466 93.3139 -2.00062
		CHANNELS 6 Xposition Yposition Zposition Zrotation Xrotation Yrotation 
		JOINT Spine
		{
			OFFSET 15.7357 0.0 0.0
			CHANNELS 6 Xposition Yposition Zposition Zrotation Xrotation Yrotation 
			JOINT Chest
			{
				OFFSET 8.98455 -0.406207 0.0
				CHANNELS 6 Xposition Yposition Zposition Zrotation Xrotation Yrotation 
				JOINT Neck
				{
					OFFSET 16.3773 0.0 0.0
					CHANNELS 6 Xposition Yposition Zposition Zrotation Xrotation Yrotation 
					JOINT Head
					{
						OFFSET 6.45672 0.0 0.0
						CHANNELS 6 Xposition Yposition Zposition Zrotation Xrotation Yrotation 
						End Site
						{
							OFFSET 0.0 0.0 0.0
						}
					}
				}
				JOINT Shoulder_L
				{
					OFFSET 12.9942 -0.242716 4.98039
					CHANNELS 6 Xposition Yposition Zposition Zrotation Xrotation Yrotation 
					JOINT UpperArm_L
					{
						OFFSET 5.34809 0.0 0.0
						CHANNELS 6 Xposition Yposition Zposition Zrotation Xrotation Yrotation 
						JOINT LowerArm_L
						{
							OFFSET 24.3286 1.87007e-05 0.0
							CHANNELS 6 Xposition Yposition Zposition Zrotation Xrotation Yrotation 
							JOINT Hand_L
							{
								OFFSET 22.2916 0.0 0.0
								CHANNELS 6 Xposition Yposition Zposition Zrotation Xrotation Yrotation 
								End Site
								{
									OFFSET 0.0 0.0 0.0
								}
							}
						}
					}
				}
				JOINT Shoulder_R
				{
					OFFSET 12.9945 -0.242716 -4.98039
					CHANNELS 6 Xposition Yposition Zposition Zrotation Xrotation Yrotation 
					JOINT UpperArm_R
					{
						OFFSET -5.34813 0.0 0.0
						CHANNELS 6 Xposition Yposition Zposition Zrotation Xrotation Yrotation 
						JOINT LowerArm_R
						{
							OFFSET -24.3289 0.000322201 0.0
							CHANNELS 6 Xposition Yposition Zposition Zrotation Xrotation Yrotation 
							JOINT Hand_R
							{
								OFFSET -22.2915 -0.000108084 0.0
								CHANNELS 6 Xposition Yposition Zposition Zrotation Xrotation Yrotation 
								End Site
								{
									OFFSET 0.0 0.0 0.0
								}
							}
						}
					}
				}
			}
		}
		JOINT UpperLeg_L
		{
			OFFSET -2.19248 -6.46944 0.0
			CHANNELS 6 Xposition Yposition Zposition Zrotation Xrotation Yrotation 
			JOINT LowerLeg_L
			{
				OFFSET 39.0811 0.0 -1.23785e-05
				CHANNELS 6 Xposition Yposition Zposition Zrotation Xrotation Yrotation 
				JOINT Foot_L
				{
					OFFSET 40.9854 0.0 -1.26872e-05
					CHANNELS 6 Xposition Yposition Zposition Zrotation Xrotation Yrotation 
					JOINT Toes_L
					{
						OFFSET 11.7543 0.0 0.0
						CHANNELS 6 Xposition Yposition Zposition Zrotation Xrotation Yrotation 
						End Site
						{
							OFFSET 0.0 0.0 0.0
						}
					}
				}
			}
		}
		JOINT UpperLeg_R
		{
			OFFSET -2.19251 6.46944 0.0
			CHANNELS 6 Xposition Yposition Zposition Zrotation Xrotation Yrotation 
			JOINT LowerLeg_R
			{
				OFFSET -39.0811 -0.00228153 -0.0401928
				CHANNELS 6 Xposition Yposition Zposition Zrotation Xrotation Yrotation 
				JOINT Foot_R
				{
					OFFSET -40.9854 0.0 0.0
					CHANNELS 6 Xposition Yposition Zposition Zrotation Xrotation Yrotation 
					JOINT Toes_R
					{
						OFFSET -11.7543 0.0 0.0
						CHANNELS 6 Xposition Yposition Zposition Zrotation Xrotation Yrotation 
						End Site
						{
							OFFSET 0.0 0.0 0.0
						}
					}
				}
			}
		}
	}
}
MOTION
Frames:	8
Frame Time:	0.0333333
0.000000 0.000000 0.000000 0.000000 0.000000 -0.000000 -1.445130 92.365800 -1.377470 88.184900 -0.221969 3.263850 15.735700 0.000005 -0.000001 82.289400 85.693700 -81.551700 8.984550 -0.406207 -0.000000 0.777159 -1.200120 1.482530 16.377300 -0.000001 -0.000001 1.477570 -2.221450 0.528052 6.456720 -0.000001 -0.000000 2.271870 -1.810750 -1.116130 12.994200 -0.242716 4.980390 -90.167300 0.541957 -72.846000 5.348090 -0.000007 -0.000001 -66.825600 38.459700 -15.044200 24.328600 0.000019 0.000005 1.379360 3.249310 -23.011800 22.291600 -0.000001 0.000005 3.919110 5.476890 -5.629890 12.994500 -0.242716 -4.980390 88.245800 5.741370 -72.978800 -5.348130 -0.000001 -0.000004 -63.253800 38.940000 -17.365300 -24.328900 0.000322 -0.000009 1.830150 5.889830 -17.305100 -22.291500 -0.000108 -0.000004 5.699010 5.382910 -2.388900 -2.192480 -6.469440 -0.000000 -175.287000 -6.725900 -3.664690 39.081100 -0.000007 -0.000012 -0.107870 0.260168 22.519800 40.985400 -0.000006 -0.000013 -0.781217 3.124460 -65.740900 11.754300 -0.000000 0.000003 -0.000037 -0.000430 -16.594300 -2.192510 6.469440 -0.000001 -179.845000 15.714500 179.856000 -39.081100 -0.002282 -0.040193 -0.034946 0.112978 18.713000 -40.985400 0.000008 0.000006 3.658950 6.142320 -65.806700 -11.754300 -0.000006 -0.000006 -0.005307 -0.064404 -19.193700
0.000000 0.000000 0.000000 0.000000 0.000000 -0.000000 -1.421660 92.366000 -1.328720 88.173700 -0.289855 3.216640 15.735700 0.000005 -0.000001 82.392800 85.685900 -81.665900 8.984550 -0.406207 -0.000000 0.794335 -1.186000 1.461080 16.377300 -0.000001 -0.000001 1.193240 -2.197490 0.567026 6.456720 -0.000001 -0.000000 2.226230 -1.794110 -1.077210 12.994200 -0.242716 4.980390 -90.220200 0.707240 -72.708400 5.348090 -0.000007 -0.000001 -66.134300 37.407500 -14.965800 24.328600 0.000019 0.000005 3.028240 6.370800 -25.479300 22.291600 -0.000001 0.000005 3.191940 5.476960 -5.632840 12.994500 -0.242716 -4.980390 88.246200 5.691410 -72.841800 -5.348130 -0.000001 -0.000004 -62.195400 39.122300 -17.603000 -24.328900 0.000322 -0.000009 2.094510 5.767770 -20.005400 -22.291500 -0.000108 -0.000004 4.352150 5.367230 -1.898290 -2.192480 -6.469440 -0.000000 -175.294000 -6.792900 -3.660970 39.081100 -0.000007 -0.000012 -0.106743 0.257640 22.504900 40.985400 -0.000006 -0.000013 -0.774770 3.082740 -65.772400 11.754300 -0.000000 0.000003 -0.000035 -0.000413 -16.593700 -2.192510 6.469440 -0.000001 -179.845000 15.763900 179.849000 -39.081100 -0.002282 -0.040193 -0.033626 0.109183 18.697000 -40.985400 0.000008 0.000006 3.774010 6.211910 -65.845100 -11.754300 -0.000006 -0.000006 -0.005302 -0.064358 -19.191900
0.000000 0.000000 0.000000 0.000000 0.000000 -0.000000 -1.403020 92.369100 -1.323990 88.138700 -0.387168 3.139300 15.735700 0.000005 -0.000001 82.627500 85.676400 -81.913800 8.984550 -0.406207 -0.000000 0.817570 -1.152470 1.434390 16.377300 -0.000001 -0.000001 1.061040 -2.161670 0.628078 6.456720 -0.000001 -0.000000 1.881400 -1.814170 -1.020030 12.994200 -0.242716 4.980390 -90.305500 0.959200 -72.331500 5.348090 -0.000007 -0.000001 -64.129000 35.820200 -15.553800 24.328600 0.000019 0.000005 5.064060 8.962230 -29.625600 22.291600 -0.000001 0.000005 2.690200 5.483430 -5.881120 12.994500 -0.242716 -4.980390 88.233500 5.637430 -72.569900 -5.348130 -0.000001 -0.000004 -60.254700 38.768800 -18.096800 -24.328900 0.000322 -0.000009 2.527290 5.486850 -24.792400 -22.291500 -0.000108 -0.000004 3.245210 5.363620 -1.791230 -2.192480 -6.469440 -0.000000 -175.284000 -6.825420 -3.725560 39.081100 -0.000007 -0.000012 -0.106082 0.255979 22.510100 40.985400 -0.000006 -0.000013 -0.768210 3.035230 -65.787000 11.754300 -0.000000 0.000003 -0.000040 -0.000462 -16.595600 -2.192510 6.469440 -0.000001 -179.804000 15.770000 179.778000 -39.081100 -0.002282 -0.040193 -0.031335 0.102598 18.665600 -40.985400 0.000008 0.000006 3.835620 6.311840 -65.830500 -11.754300 -0.000006 -0.000006 -0.005364 -0.064949 -19.216000
0.000000 0.000000 0.000000 0.000000 0.000000 -0.000000 -1.377600 92.382700 -1.366670 88.145000 -0.442907 3.071300 15.735700 0.000005 -0.000001 82.977300 85.658400 -82.294800 8.984550 -0.406207 -0.000000 0.859209 -1.102360 1.372200 16.377300 -0.000001 -0.000001 1.015980 -2.135090 0.698418 6.456720 -0.000001 -0.000000 1.535680 -1.858780 -0.985196 12.994200 -0.242716 4.980390 -90.374100 1.150070 -71.982300 5.348090 -0.000007 -0.000001 -61.393100 32.625000 -16.617700 24.328600 0.000019 0.000005 6.367710 9.213940 -34.872100 22.291600 -0.000001 0.000005 3.510210 5.494240 -6.299760 12.994500 -0.242716 -4.980390 88.203700 5.588680 -72.150200 -5.348130 -0.000001 -0.000004 -57.205500 37.330500 -19.205500 -24.328900 0.000322 -0.000009 3.157770 5.197570 -31.347200 -22.291500 -0.000108 -0.000004 3.047530 5.375090 -2.144240 -2.192480 -6.469440 -0.000000 -175.312000 -6.879210 -3.778780 39.081100 -0.000007 -0.000012 -0.107471 0.260321 22.432800 40.985400 -0.000006 -0.000013 -0.752609 3.039630 -65.722800 11.754300 -0.000000 0.000003 -0.000039 -0.000458 -16.595400 -2.192510 6.469440 -0.000001 -179.791000 15.793000 179.692000 -39.081100 -0.002282 -0.040193 -0.028917 0.095662 18.625300 -40.985400 0.000008 0.000006 3.941510 6.368310 -65.790400 -11.754300 -0.000006 -0.000006 -0.005406 -0.065338 -19.231800
0.000000 0.000000 0.000000 0.000000 0.000000 -0.000000 -1.362860 92.392300 -1.452240 88.124000 -0.428903 2.998020 15.735700 0.000005 -0.000001 82.861400 85.659900 -82.188000 8.984550 -0.406207 -0.000000 0.854106 -1.118890 1.354190 16.377300 -0.000001 -0.000001 1.123950 -2.036190 0.771041 6.456720 -0.000001 -0.000000 1.309260 -1.802500 -1.036440 12.994200 -0.242716 4.980390 -90.386900 1.162680 -71.593200 5.348090 -0.000007 -0.000001 -58.638400 27.615100 -18.033400 24.328600 0.000019 0.000005 7.186960 8.471320 -40.562800 22.291600 -0.000001 0.000005 6.199060 5.516440 -7.204020 12.994500 -0.242716 -4.980390 88.192800 5.442870 -71.600600 -5.348130 -0.000001 -0.000004 -53.463800 34.372300 -20.984500 -24.328900 0.000322 -0.000009 4.147890 5.136330 -39.014000 -22.291500 -0.000108 -0.000004 4.387520 5.382080 -2.362360 -2.192480 -6.469440 -0.000000 -175.326000 -6.867580 -3.924810 39.081100 -0.000007 -0.000012 -0.105380 0.255169 22.439800 40.985400 -0.000006 -0.000013 -0.744723 2.991700 -65.660100 11.754300 -0.000000 0.000003 -0.000037 -0.000434 -16.594500 -2.192510 6.469440 -0.000001 -179.752000 15.813900 179.570000 -39.081100 -0.002282 -0.040193 -0.029213 0.096743 18.588900 -40.985400 0.000008 0.000006 3.892820 6.389980 -65.702600 -11.754300 -0.000006 -0.000006 -0.005275 -0.064104 -19.181500
0.000000 0.000000 0.000000 0.000000 0.000000 -0.000000 -1.323190 92.406400 -1.521830 88.107100 -0.408965 2.908850 15.735700 0.000005 -0.000001 82.757900 85.696500 -82.084800 8.984550 -0.406207 -0.000000 0.779567 -1.125650 1.353000 16.377300 -0.000001 -0.000001 1.334410 -1.952130 0.814806 6.456720 -0.000001 -0.000000 1.327740 -1.653200 -1.131200 12.994200 -0.242716 4.980390 -90.346000 1.025840 -71.360000 5.348090 -0.000007 -0.000001 -55.938000 21.228800 -19.922200 24.328600 0.000019 0.000005 8.306950 7.950280 -46.545000 22.291600 -0.000001 0.000005 8.656450 5.535250 -8.023240 12.994500 -0.242716 -4.980390 88.235000 5.137800 -71.011200 -5.348130 -0.000001 -0.000004 -49.876500 29.404000 -23.304500 -24.328900 0.000322 -0.000009 5.756020 5.473580 -46.576800 -22.291500 -0.000108 -0.000004 6.555540 5.384470 -2.437090 -2.192480 -6.469440 -0.000000 -175.355000 -6.905040 -4.069660 39.081100 -0.000007 -0.000012 -0.102397 0.248260 22.414200 40.985400 -0.000006 -0.000013 -0.706462 3.014690 -65.583400 11.754300 -0.000000 0.000003 -0.000045 -0.000512 -16.597500 -2.192510 6.469440 -0.000001 -179.712000 15.803000 179.448000 -39.081100 -0.002282 -0.040193 -0.029069 0.096682 18.523600 -40.985400 0.000008 0.000006 3.869460 6.354440 -65.604600 -11.754300 -0.000006 -0.000006 -0.005281 -0.064157 -19.183700
0.000000 0.000000 0.000000 0.000000 0.000000 -0.000000 -1.278540 92.418200 -1.590420 88.106800 -0.359595 2.944510 15.735700 0.000005 -0.000001 82.403300 85.709100 -81.742000 8.984550 -0.406207 -0.000000 0.747752 -1.174590 1.329180 16.377300 -0.000001 -0.000001 1.616180 -1.849580 0.829163 6.456720 -0.000001 -0.000000 1.509900 -1.484810 -1.119450 12.994200 -0.242716 4.980390 -90.235300 0.692238 -71.222800 5.348090 -0.000007 -0.000001 -53.645600 13.831300 -22.249500 24.328600 0.000019 0.000005 10.133800 7.859990 -52.576600 22.291600 -0.000001 0.000005 11.841200 5.548800 -8.631530 12.994500 -0.242716 -4.980390 88.288300 4.875120 -70.626600 -5.348130 -0.000001 -0.000004 -46.770400 22.506300 -25.918100 -24.328900 0.000322 -0.000009 7.636550 5.659880 -53.656800 -22.291500 -0.000108 -0.000004 9.093410 5.374850 -2.137640 -2.192480 -6.469440 -0.000000 -175.386000 -6.866350 -4.058300 39.081100 -0.000007 -0.000012 -0.102507 0.249076 22.369600 40.985400 -0.000006 -0.000013 -0.670082 3.034240 -65.522500 11.754300 -0.000000 0.000003 -0.000033 -0.000394 -16.592900 -2.192510 6.469440 -0.000001 -179.735000 15.807000 179.454000 -39.081100 -0.002282 -0.040193 -0.027240 0.091398 18.490500 -40.985400 0.000008 0.000006 3.894380 6.317790 -65.543200 -11.754300 -0.000006 -0.000006 -0.005244 -0.063811 -19.169600
0.000000 0.000000 0.000000 0.000000 0.000000 -0.000000 -1.226860 92.416800 -1.634200 88.084300 -0.326475 2.973030 15.735700 0.000005 -0.000001 82.407500 85.736600 -81.747100 8.984550 -0.406207 -0.000000 0.693243 -1.166970 1.326760 16.377300 -0.000001 -0.000001 1.879540 -1.784820 0.911531 6.456720 -0.000001 -0.000000 1.749030 -1.413190 -1.200070 12.994200 -0.242716 4.980390 -90.116400 0.340961 -71.159300 5.348090 -0.000007 -0.000001 -52.438900 5.183010 -24.934700 24.328600 0.000019 0.000005 12.161800 7.606370 -58.439400 22.291600 -0.000001 0.000005 14.955900 5.562930 -9.325780 12.994500 -0.242716 -4.980390 88.359100 4.600930 -70.347500 -5.348130 -0.000001 -0.000004 -44.713900 13.969600 -28.621300 -24.328900 0.000322 -0.000009 10.262000 5.915080 -60.345000 -22.291500 -0.000108 -0.000004 11.181600 5.354340 -1.519290 -2.192480 -6.469440 -0.000000 -175.393000 -6.890230 -4.093570 39.081100 -0.000007 -0.000012 -0.101871 0.246762 22.432400 40.985400 -0.000006 -0.000013 -0.617856 3.100890 -65.527400 11.754300 -0.000000 0.000003 -0.000041 -0.000471 -16.595900 -2.192510 6.469440 -0.000001 -179.743000 15.807700 179.435000 -39.081100 -0.002282 -0.040193 -0.028251 0.094282 18.515500 -40.985400 0.000008 0.000006 3.819210 6.284700 -65.505200 -11.754300 -0.000006 -0.000006 -0.005419 -0.065461 -19.236800
